<svg xmlns="http://www.w3.org/2000/svg" version="1.1" xmlns:xlink="http://www.w3.org/1999/xlink" xmlns:svgjs="http://svgjs.dev/svgjs" width="1440" height="560" preserveAspectRatio="none" viewBox="0 0 1440 560"><g mask="url(&quot;#SvgjsMask1283&quot;)" fill="none"><rect width="1440" height="560" x="0" y="0" fill="url(&quot;#SvgjsLinearGradient1284&quot;)"></rect><path d="M -258.1527760863244,437 C -186.15,400 -42.15,277.8 101.84722391367559,252 C 245.85,226.2 317.85,307.8 461.8472239136756,308 C 605.85,308.2 677.85,234.2 821.8472239136756,253 C 965.85,271.8 1037.85,431.4 1181.8472239136756,402 C 1325.85,372.6 1490.22,116.2 1541.8472239136756,106 C 1593.48,95.8 1460.37,302 1440,351" stroke="rgba(51, 121, 194, 0.58)" stroke-width="2"></path><path d="M -609.8125922376469,289 C -537.81,248.4 -393.81,35.6 -249.81259223764687,86 C -105.81,136.4 -33.81,526.6 110.18740776235313,541 C 254.19,555.4 326.19,179 470.18740776235313,158 C 614.19,137 686.19,414.6 830.1874077623531,436 C 974.19,457.4 1068.22,291.6 1190.1874077623531,265 C 1312.15,238.4 1390.04,295.4 1440,303" stroke="rgba(186, 86, 193, 1)" stroke-width="2"></path><path d="M -430.33390083295785,19 C -358.33,80.6 -214.33,314.2 -70.33390083295784,327 C 73.67,339.8 145.67,41.8 289.66609916704215,83 C 433.67,124.2 505.67,504 649.6660991670421,533 C 793.67,562 865.67,246.4 1009.6660991670421,228 C 1153.67,209.6 1283.6,465 1369.6660991670421,441 C 1455.73,417 1425.93,174.6 1440,108" stroke="rgba(51, 121, 194, 0.58)" stroke-width="2"></path><path d="M -370.7361003794268,97 C -298.74,184.8 -154.74,538.2 -10.73610037942676,536 C 133.26,533.8 205.26,86.2 349.2638996205732,86 C 493.26,85.8 565.26,504.8 709.2638996205733,535 C 853.26,565.2 925.26,287 1069.2638996205733,237 C 1213.26,187 1355.12,326.2 1429.2638996205733,285 C 1503.41,243.8 1437.85,81.8 1440,31" stroke="rgba(51, 121, 194, 0.58)" stroke-width="2"></path><path d="M -602.9870978716044,194 C -530.99,237.6 -386.99,400.6 -242.98709787160436,412 C -98.99,423.4 -26.99,248 117.01290212839564,251 C 261.01,254 333.01,448.8 477.01290212839564,427 C 621.01,405.2 693.01,128.6 837.0129021283956,142 C 981.01,155.4 1076.42,513 1197.0129021283956,494 C 1317.61,475 1391.4,136.4 1440,47" stroke="rgba(51, 121, 194, 0.58)" stroke-width="2"></path><path d="M -42.72840874193923,108 C 29.27,192.8 173.27,541.4 317.27159125806077,532 C 461.27,522.6 533.27,108 677.2715912580608,61 C 821.27,14 893.27,283.8 1037.2715912580607,297 C 1181.27,310.2 1253.27,98.8 1397.2715912580607,127 C 1541.27,155.2 1748.73,441.8 1757.2715912580607,438 C 1765.82,434.2 1503.45,174 1440,108" stroke="rgba(51, 121, 194, 0.58)" stroke-width="2"></path></g><defs><mask id="SvgjsMask1283"><rect width="1440" height="560" fill="#ffffff"></rect></mask><linearGradient x1="15.28%" y1="-39.29%" x2="84.72%" y2="139.29%" gradientUnits="userSpaceOnUse" id="SvgjsLinearGradient1284"><stop stop-color="#0e2a47" offset="0"></stop><stop stop-color="rgba(92, 0, 158, 0.97)" offset="1"></stop></linearGradient></defs></svg>