<svg xmlns="http://www.w3.org/2000/svg" version="1.1" xmlns:xlink="http://www.w3.org/1999/xlink" xmlns:svgjs="http://svgjs.dev/svgjs" width="1440" height="560" preserveAspectRatio="none" viewBox="0 0 1440 560"><g clip-path="url(&quot;#SvgjsClipPath1392&quot;)" fill="none"><rect width="1440" height="560" x="0" y="0" fill="url(&quot;#SvgjsLinearGradient1393&quot;)"></rect><circle r="93.335" cx="42.1" cy="47.52" stroke="#2e409e" stroke-opacity="1" stroke-width="2"></circle><circle r="93.335" cx="432.8" cy="348.47" stroke="#2e409e" stroke-opacity="1" stroke-width="2"></circle><circle r="93.335" cx="799.16" cy="721.68" stroke="#2e409e" stroke-opacity="1" stroke-width="2"></circle><circle r="99.2" cx="1091.65" cy="272.67" stroke="#2e409e" stroke-opacity="1" stroke-width="2"></circle><circle r="57.195" cx="312.17" cy="278.49" stroke="#2e409e" stroke-opacity="1" stroke-width="2"></circle><circle r="69.49" cx="350.42" cy="537.31" stroke="#2e409e" stroke-opacity="1" stroke-width="2"></circle><circle r="185.625" cx="850.02" cy="232.26" stroke="#2e409e" stroke-opacity="1" stroke-width="2"></circle><circle r="49.365" cx="1232.33" cy="144.99" stroke="#2e409e" stroke-opacity="1" stroke-width="2"></circle><circle r="181.365" cx="887.17" cy="558.69" stroke="#2e409e" stroke-opacity="1" stroke-width="2"></circle><circle r="94.625" cx="365.5" cy="539.25" stroke="#2e409e" stroke-opacity="1" stroke-width="2"></circle><circle r="89.125" cx="1344.31" cy="32.45" stroke="#2e409e" stroke-opacity="1" stroke-width="2"></circle><circle r="142.13" cx="226.74" cy="285.29" stroke="#2e409e" stroke-opacity="1" stroke-width="2"></circle><circle r="157.32" cx="665.35" cy="102.07" stroke="#2e409e" stroke-opacity="1" stroke-width="2"></circle><circle r="124.53" cx="786.78" cy="2.33" stroke="#2e409e" stroke-opacity="1" stroke-width="2"></circle><circle r="73.79" cx="36.44" cy="269.4" stroke="#2e409e" stroke-opacity="1" stroke-width="2"></circle><circle r="133.245" cx="498.84" cy="393.5" stroke="#2e409e" stroke-opacity="1" stroke-width="2"></circle><circle r="177.48" cx="582.69" cy="356.1" stroke="#2e409e" stroke-opacity="1" stroke-width="2"></circle><circle r="170.87" cx="605.25" cy="189.53" stroke="#2e409e" stroke-opacity="1" stroke-width="2"></circle><circle r="144.37" cx="1086.22" cy="78.92" stroke="#2e409e" stroke-opacity="1" stroke-width="2"></circle><circle r="160.485" cx="1187.72" cy="502.83" stroke="#2e409e" stroke-opacity="1" stroke-width="2"></circle><circle r="111.26" cx="1141.5" cy="463.02" stroke="#2e409e" stroke-opacity="1" stroke-width="2"></circle><circle r="115.78" cx="189.43" cy="537.31" stroke="#2e409e" stroke-opacity="1" stroke-width="2"></circle><circle r="94.01" cx="465.81" cy="20.26" stroke="#2e409e" stroke-opacity="1" stroke-width="2"></circle><circle r="185.72" cx="482.67" cy="42.81" stroke="#2e409e" stroke-opacity="1" stroke-width="2"></circle><circle r="150.835" cx="980.4" cy="321.08" stroke="#2e409e" stroke-opacity="1" stroke-width="2"></circle><circle r="170.11" cx="923.6" cy="313.39" stroke="#2e409e" stroke-opacity="1" stroke-width="2"></circle><circle r="54.99" cx="370.25" cy="103.62" stroke="#2e409e" stroke-opacity="1" stroke-width="2"></circle><circle r="150.28" cx="1381.37" cy="358.67" stroke="#2e409e" stroke-opacity="1" stroke-width="2"></circle><circle r="102.5" cx="1124.39" cy="428.84" stroke="#2e409e" stroke-opacity="1" stroke-width="2"></circle><circle r="171.855" cx="293.63" cy="523.68" stroke="#2e409e" stroke-opacity="1" stroke-width="2"></circle><circle r="174.015" cx="202.84" cy="263.25" stroke="#2e409e" stroke-opacity="1" stroke-width="2"></circle><circle r="132.47" cx="1247.22" cy="35" stroke="#2e409e" stroke-opacity="1" stroke-width="2"></circle><circle r="88.62" cx="625.82" cy="552.77" stroke="#2e409e" stroke-opacity="1" stroke-width="2"></circle><circle r="57.35" cx="433.18" cy="69.58" stroke="#2e409e" stroke-opacity="1" stroke-width="2"></circle><circle r="167.41" cx="1170.03" cy="227.97" stroke="#2e409e" stroke-opacity="1" stroke-width="2"></circle><circle r="106.66" cx="113.22" cy="492.07" stroke="#2e409e" stroke-opacity="1" stroke-width="2"></circle><circle r="169.32" cx="1394.58" cy="122.43" stroke="#2e409e" stroke-opacity="1" stroke-width="2"></circle><circle r="73.78" cx="356.2" cy="117.43" stroke="#2e409e" stroke-opacity="1" stroke-width="2"></circle><circle r="60.23" cx="432.69" cy="3.48" stroke="#2e409e" stroke-opacity="1" stroke-width="2"></circle><circle r="141.87" cx="1169.41" cy="452.4" stroke="#2e409e" stroke-opacity="1" stroke-width="2"></circle></g><defs><clipPath id="SvgjsClipPath1392"><rect width="1440" height="560" x="0" y="0"></rect></clipPath><linearGradient x1="15.28%" y1="-39.29%" x2="84.72%" y2="139.29%" gradientUnits="userSpaceOnUse" id="SvgjsLinearGradient1393"><stop stop-color="#0e2a47" offset="0"></stop><stop stop-color="rgba(0, 47, 108, 1)" offset="0.41"></stop><stop stop-color="rgba(0, 22, 108, 1)" offset="0.46"></stop><stop stop-color="rgba(0, 47, 108, 1)" offset="1"></stop></linearGradient></defs></svg>